<svg xmlns="http://www.w3.org/2000/svg" viewBox="0 0 1600 900" role="img" aria-labelledby="title desc">
  <title id="title">Backdrop placeholder</title>
  <desc id="desc">Decorative fallback image for movie backdrops.</desc>
  <defs>
    <linearGradient id="bg" x1="0%" y1="0%" x2="100%" y2="100%">
      <stop offset="0%" stop-color="#111827" />
      <stop offset="50%" stop-color="#0f172a" />
      <stop offset="100%" stop-color="#1e293b" />
    </linearGradient>
    <linearGradient id="glow" x1="0%" y1="0%" x2="100%" y2="0%">
      <stop offset="0%" stop-color="#f59e0b" stop-opacity="0.9" />
      <stop offset="100%" stop-color="#fb923c" stop-opacity="0.2" />
    </linearGradient>
  </defs>
  <rect width="1600" height="900" fill="url(#bg)" />
  <circle cx="1260" cy="170" r="220" fill="#f59e0b" opacity="0.08" />
  <circle cx="340" cy="740" r="260" fill="#38bdf8" opacity="0.08" />
  <path d="M0 710C210 640 365 570 588 610C768 642 883 758 1072 774C1299 793 1438 678 1600 618V900H0Z" fill="#020617" opacity="0.75" />
  <rect x="124" y="96" width="372" height="18" rx="9" fill="url(#glow)" opacity="0.82" />
  <rect x="124" y="152" width="590" height="82" rx="24" fill="#ffffff" opacity="0.08" />
  <rect x="124" y="270" width="444" height="24" rx="12" fill="#ffffff" opacity="0.12" />
  <rect x="124" y="316" width="508" height="24" rx="12" fill="#ffffff" opacity="0.12" />
  <rect x="124" y="362" width="372" height="24" rx="12" fill="#ffffff" opacity="0.12" />
  <rect x="124" y="438" width="160" height="54" rx="27" fill="#f59e0b" opacity="0.9" />
  <rect x="304" y="438" width="192" height="54" rx="27" fill="#ffffff" opacity="0.12" />
  <g transform="translate(1120 210)">
    <rect width="238" height="356" rx="34" fill="#0f172a" stroke="#ffffff" stroke-opacity="0.12" />
    <rect x="18" y="18" width="202" height="320" rx="24" fill="#1e293b" />
    <circle cx="119" cy="116" r="42" fill="#f59e0b" opacity="0.75" />
    <path d="M64 236C92 190 146 190 174 236" fill="none" stroke="#e2e8f0" stroke-opacity="0.38" stroke-width="18" stroke-linecap="round" />
  </g>
</svg>
